# xmcd
#
# Track frame offsets: 
#        150
#        12602
#        26655
#        39402
#        53360
#        66120
#        80375
#        92692
#        107500
#        120860
#        136085
#        150075
#        163390
#        178225
#        192690
#        205375
#        218010
#        234190
#        249062
#        263262
#        276980
#        291402
#        305060
#
# Disc length: 4240 seconds
#
# Revision: 3
# Processed by: cddbd v1.5.2PL0 Copyright (c) Steve Scherf et al.
# Submitted via: ExactAudioCopy v0.95b2
#
DISCID=34108e17
DTITLE=Various Artist - Ruckus Juice and Chittlin Volume 2s
DYEAR=1900
DGENRE=Blues
TTITLE0=Cannon's Jug Stompers - Bring It With You When You Come
TTITLE1=Birmingham Jug Band - German Blues
TTITLE2=Noah Lewis Jug Band - Selling the Jelly
TTITLE3=Memphis Jug Band - You May Leave But This Will Bring You Back
TTITLE4=Kentucky Jug Band - Walkin' Cane Stomp
TTITLE5=King David's Jug Band - Rising Sun Blues
TTITLE6=Minnie Wallace - The Old Folks Started It
TTITLE7=Dixieland Jug Blowers - Memphis Shake
TTITLE8=Memphis Jug Band - Stealin' Stealin'
TTITLE9=King David's Jug Band - Sweet Potato Blues
TTITLE10=Jack Kelly and His South Memphis Jug Band - R.F.C. Blues
TTITLE11=Ezra Buzzington Rustic Revelers - Brown Jug Blues
TTITLE12=Cannon's Jug Stompers - Last Chance Blues
TTITLE13=Memphis Jug Band - He's in the Jailhouse Now
TTITLE14=Cincinnati Jug Band - George Street Stomp
TTITLE15=Earl McDonald Original Louisville Jug Band - Casey Bill
TTITLE16=Mississippi Sarah and Daddy Stovepipe - Greenville Strut
TTITLE17=Dixieland Jug Blowers - Boodle Am Shake
TTITLE18=Whistler and His Jug Band - Jug Band Special
TTITLE19=Phillips Louisville Jug Band - Smackin' the Sax
TTITLE20=Five Harmaniacs - What Makes My Baby Cry?
TTITLE21=Jed Davenport and His Beale Street Jug - Piccolo Blues
TTITLE22=Prairie Ramblers - Jug Rag
EXTD=
EXTT0=
EXTT1=
EXTT2=
EXTT3=
EXTT4=
EXTT5=
EXTT6=
EXTT7=
EXTT8=
EXTT9=
EXTT10=
EXTT11=
EXTT12=
EXTT13=
EXTT14=
EXTT15=
EXTT16=
EXTT17=
EXTT18=
EXTT19=
EXTT20=
EXTT21=
EXTT22=
PLAYORDER=
